<svg width="68" height="68" viewBox="0 0 68 68" fill="none" xmlns="http://www.w3.org/2000/svg">
<g filter="url(#filter0_d)">
<path d="M58.0451 5.95494C54.1824 2.12446 49.0966 0 43.6566 0C38.2167 0 33.1309 2.12446 29.2682 5.95494C26.2747 8.9485 24.3111 12.7468 23.603 16.8348C23.5386 17.2532 23.4742 17.6717 23.442 18.0901C23.4099 18.5086 23.3777 18.927 23.3455 19.3455C23.3133 19.6674 23.3133 20.0215 23.3133 20.3433V23.1116V24.367V25.6223V40.7189H38.4099H39.6652H40.9206C40.9528 40.3648 40.9528 40.0429 40.9528 39.6888V36.9528H39.6974H27.0794V25.5901V23.1116V20.3755C27.0794 20.0215 27.0794 19.6996 27.1116 19.3455C27.1438 18.927 27.176 18.5086 27.2403 18.0901C27.3047 17.6717 27.3691 17.2532 27.4657 16.8348C28.1416 13.6803 29.7511 10.8476 31.9399 8.62661C34.9335 5.63305 39.0858 3.76609 43.6566 3.76609C52.7983 3.76609 60.2339 11.2017 60.2339 20.3433C60.2339 24.9142 58.3669 29.0665 55.3734 32.0601C53.1524 34.2811 50.3197 35.8584 47.1652 36.5343V36.8884V39.6567C47.1652 39.9142 47.1652 40.1395 47.1652 40.397C51.2532 39.6888 55.0515 37.7253 58.0451 34.7318C61.8755 30.9013 64 25.7833 64 20.3433C64 14.9034 61.8755 9.78541 58.0451 5.95494Z" fill="#F7654A"/>
<path d="M27.0794 23.0794H28.3348H29.5901H40.9528V34.442V35.6974V36.9528V39.6888C40.9528 40.0429 40.9528 40.3648 40.9206 40.7189C40.8884 41.1373 40.8562 41.5558 40.7919 41.9742C40.7275 42.3927 40.6631 42.8111 40.5665 43.2296C39.8906 46.3841 38.2811 49.2167 36.0923 51.4378C33.0987 54.4313 28.9464 56.2983 24.3755 56.2983C15.2339 56.2983 7.79828 48.8626 7.79828 39.721C7.79828 35.1502 9.66524 30.9978 12.6588 28.0043C14.8798 25.7833 17.7124 24.206 20.867 23.53V20.4077C20.867 20.1502 20.867 19.9249 20.867 19.6674C16.779 20.3755 12.9807 22.339 9.98713 25.3326C6.12446 29.0987 4 34.2167 4 39.6566C4 45.0966 6.12446 50.1824 9.95494 54.0451C13.7854 57.8755 18.9034 60 24.3433 60C29.7833 60 34.8691 57.8755 38.7318 54.0451C42.3369 50.4399 44.4292 45.7081 44.6545 40.6545C44.6545 40.4936 44.6545 40.3326 44.6867 40.1717C44.6867 40.0751 44.6867 40.0107 44.6867 39.9142C44.6867 39.8176 44.6867 39.7532 44.6867 39.6566V36.8884V19.3133H29.5901H28.3348H27.0794C27.0472 19.6674 27.0472 19.9893 27.0472 20.3433L27.0794 23.0794Z" fill="#F7654A"/>
</g>
<defs>
<filter id="filter0_d" x="0" y="0" width="68" height="68" filterUnits="userSpaceOnUse" color-interpolation-filters="sRGB">
<feFlood flood-opacity="0" result="BackgroundImageFix"/>
<feColorMatrix in="SourceAlpha" type="matrix" values="0 0 0 0 0 0 0 0 0 0 0 0 0 0 0 0 0 0 127 0"/>
<feOffset dy="4"/>
<feGaussianBlur stdDeviation="2"/>
<feColorMatrix type="matrix" values="0 0 0 0 0 0 0 0 0 0 0 0 0 0 0 0 0 0 0.25 0"/>
<feBlend mode="normal" in2="BackgroundImageFix" result="effect1_dropShadow"/>
<feBlend mode="normal" in="SourceGraphic" in2="effect1_dropShadow" result="shape"/>
</filter>
</defs>
</svg>
