<svg width="58" height="58" viewBox="0 0 58 58" fill="none" xmlns="http://www.w3.org/2000/svg">
<g filter="url(#filter0_d)">
<rect x="4" width="50" height="50" fill="#F7654A"/>
<path d="M38.5714 31.4286C38.5714 30.9598 38.183 30.5714 37.7143 30.5714H18.8571C18.3884 30.5714 18 30.9598 18 31.4286V33.1429C18 33.6116 18.3884 34 18.8571 34H37.7143C38.183 34 38.5714 33.6116 38.5714 33.1429V31.4286ZM38.5714 24.5714C38.5714 24.1027 38.183 23.7143 37.7143 23.7143H18.8571C18.3884 23.7143 18 24.1027 18 24.5714V26.2857C18 26.7545 18.3884 27.1429 18.8571 27.1429H37.7143C38.183 27.1429 38.5714 26.7545 38.5714 26.2857V24.5714ZM38.5714 17.7143C38.5714 17.2455 38.183 16.8571 37.7143 16.8571H18.8571C18.3884 16.8571 18 17.2455 18 17.7143V19.4286C18 19.8973 18.3884 20.2857 18.8571 20.2857H37.7143C38.183 20.2857 38.5714 19.8973 38.5714 19.4286V17.7143Z" fill="white"/>
</g>
<defs>
<filter id="filter0_d" x="0" y="0" width="58" height="58" filterUnits="userSpaceOnUse" color-interpolation-filters="sRGB">
<feFlood flood-opacity="0" result="BackgroundImageFix"/>
<feColorMatrix in="SourceAlpha" type="matrix" values="0 0 0 0 0 0 0 0 0 0 0 0 0 0 0 0 0 0 127 0"/>
<feOffset dy="4"/>
<feGaussianBlur stdDeviation="2"/>
<feColorMatrix type="matrix" values="0 0 0 0 0 0 0 0 0 0 0 0 0 0 0 0 0 0 0.25 0"/>
<feBlend mode="normal" in2="BackgroundImageFix" result="effect1_dropShadow"/>
<feBlend mode="normal" in="SourceGraphic" in2="effect1_dropShadow" result="shape"/>
</filter>
</defs>
</svg>
